<?xml version="1.0" encoding="UTF-8" standalone="no"?>
<!-- Created with Inkscape (http://www.inkscape.org/) -->

<svg
   width="1000"
   height="145"
   viewBox="0 0 264.58333 38.364584"
   version="1.1"
   id="svg1"
   inkscape:version="1.3.2 (091e20e, 2023-11-25, custom)"
   sodipodi:docname="Lotte Wellfood Logo (Horizontal).svg"
   xmlns:inkscape="http://www.inkscape.org/namespaces/inkscape"
   xmlns:sodipodi="http://sodipodi.sourceforge.net/DTD/sodipodi-0.dtd"
   xmlns="http://www.w3.org/2000/svg"
   xmlns:svg="http://www.w3.org/2000/svg">
  <sodipodi:namedview
     id="namedview1"
     pagecolor="#ffffff"
     bordercolor="#000000"
     borderopacity="0.25"
     inkscape:showpageshadow="2"
     inkscape:pageopacity="0.0"
     inkscape:pagecheckerboard="0"
     inkscape:deskcolor="#d1d1d1"
     inkscape:document-units="mm"
     inkscape:zoom="1.4627806"
     inkscape:cx="529.81288"
     inkscape:cy="60.501213"
     inkscape:window-width="1920"
     inkscape:window-height="1017"
     inkscape:window-x="-8"
     inkscape:window-y="-8"
     inkscape:window-maximized="1"
     inkscape:current-layer="g208" />
  <defs
     id="defs1">
    <clipPath
       clipPathUnits="userSpaceOnUse"
       id="clipPath10">
      <path
         d="M 0,0 H 1116.85 V 629.291 H 0 Z"
         transform="translate(-834.62155,-164.8358)"
         id="path10" />
    </clipPath>
    <clipPath
       clipPathUnits="userSpaceOnUse"
       id="clipPath14">
      <path
         d="M 0,0 H 1116.85 V 629.291 H 0 Z"
         transform="translate(-814.918,-151.2597)"
         id="path14" />
    </clipPath>
    <clipPath
       clipPathUnits="userSpaceOnUse"
       id="clipPath16">
      <path
         d="M 0,0 H 1116.85 V 629.291 H 0 Z"
         transform="translate(-883.76035,-162.32771)"
         id="path16" />
    </clipPath>
    <clipPath
       clipPathUnits="userSpaceOnUse"
       id="clipPath18">
      <path
         d="M 0,0 H 1116.85 V 629.291 H 0 Z"
         transform="translate(-929.1712,-149.2548)"
         id="path18" />
    </clipPath>
    <clipPath
       clipPathUnits="userSpaceOnUse"
       id="clipPath20">
      <path
         d="M 0,0 H 1116.85 V 629.291 H 0 Z"
         transform="translate(-950.7343,-157.76261)"
         id="path20" />
    </clipPath>
    <clipPath
       clipPathUnits="userSpaceOnUse"
       id="clipPath22">
      <path
         d="M 0,0 H 1116.85 V 629.291 H 0 Z"
         transform="translate(-958.5757,-151.41971)"
         id="path22" />
    </clipPath>
    <clipPath
       clipPathUnits="userSpaceOnUse"
       id="clipPath24">
      <path
         d="M 0,0 H 1116.85 V 629.291 H 0 Z"
         transform="translate(-974.92495,-151.41971)"
         id="path24" />
    </clipPath>
    <clipPath
       clipPathUnits="userSpaceOnUse"
       id="clipPath26">
      <path
         d="M 0,0 H 1116.85 V 629.291 H 0 Z"
         transform="translate(-991.14122,-157.76261)"
         id="path26" />
    </clipPath>
    <clipPath
       clipPathUnits="userSpaceOnUse"
       id="clipPath28">
      <path
         d="M 0,0 H 1116.85 V 629.291 H 0 Z"
         transform="translate(-1023.3046,-156.31931)"
         id="path28" />
    </clipPath>
    <clipPath
       clipPathUnits="userSpaceOnUse"
       id="clipPath30">
      <path
         d="M 0,0 H 1116.85 V 629.291 H 0 Z"
         transform="translate(-1045.5807,-156.31931)"
         id="path30" />
    </clipPath>
    <clipPath
       clipPathUnits="userSpaceOnUse"
       id="clipPath32">
      <path
         d="M 0,0 H 1116.85 V 629.291 H 0 Z"
         transform="translate(-1058.1663,-164.21081)"
         id="path32" />
    </clipPath>
    <clipPath
       clipPathUnits="userSpaceOnUse"
       id="clipPath34">
      <path
         d="M 0,0 H 1116.85 V 629.291 H 0 Z"
         transform="translate(-785.58549,-137.4993)"
         id="path34" />
    </clipPath>
    <clipPath
       clipPathUnits="userSpaceOnUse"
       id="clipPath36">
      <path
         d="M 0,0 H 1116.85 V 629.291 H 0 Z"
         transform="translate(-770.62119,-142.3881)"
         id="path36" />
    </clipPath>
    <clipPath
       clipPathUnits="userSpaceOnUse"
       id="clipPath38">
      <path
         d="M 0,0 H 1116.85 V 629.291 H 0 Z"
         transform="translate(-775.72614,-168.2867)"
         id="path38" />
    </clipPath>
  </defs>
  <g
     inkscape:label="Lapis 1"
     inkscape:groupmode="layer"
     id="layer1">
    <g
       id="g208"
       transform="matrix(0.63042518,0,0,0.63042518,-633.35886,-378.38985)">
      <g
         id="g1"
         transform="matrix(1.0029153,0,0,1.0029153,-2.9291488,-1.8220099)">
        <path
           id="path9"
           d="m 0,0 c -6.196,0 -9.904,-3.835 -9.904,-8.562 0,-4.728 3.708,-8.561 9.904,-8.561 6.206,0 9.923,3.833 9.923,8.561 C 9.923,-3.835 6.206,0 0,0 m 0,-15.282 c -2.966,0 -5.225,3.013 -5.225,6.72 0,3.713 2.259,6.719 5.225,6.719 2.98,0 5.234,-3.006 5.234,-6.719 0,-3.707 -2.254,-6.72 -5.234,-6.72"
           style="fill:#e30413;fill-opacity:1;fill-rule:nonzero;stroke:none"
           transform="matrix(1.3333333,0,0,-1.3333333,1112.8287,619.2736)"
           clip-path="url(#clipPath10)" />
        <path
           id="path11"
           d="m 1127.192,622.64387 h 8.696 v 18.508 h 6.5547 v -18.508 h 7.3506 v -2.52667 h -22.6013 z"
           style="fill:#e30413;fill-opacity:1;fill-rule:nonzero;stroke:none;stroke-width:1.33333" />
        <path
           id="path12"
           d="m 1152.1775,622.64387 h 7.3387 v 18.508 h 6.5506 v -18.508 h 8.7174 v -2.52667 h -22.6067 z"
           style="fill:#e30413;fill-opacity:1;fill-rule:nonzero;stroke:none;stroke-width:1.33333" />
        <path
           id="path13"
           d="m 0,0 v 12.943 h -4.717 v -13.9 c 0,-1.037 0.841,-1.876 1.881,-1.876 H 9.228 v 1.897 H 0.943 C 0.432,-0.936 0,-0.527 0,0"
           style="fill:#e30413;fill-opacity:1;fill-rule:nonzero;stroke:none"
           transform="matrix(1.3333333,0,0,-1.3333333,1086.5573,637.37507)"
           clip-path="url(#clipPath14)" />
        <path
           id="path15"
           d="M 0,0 V -12.024 C 0,-13.061 0.846,-13.9 1.886,-13.9 h 12.858 v 1.86 H 5.669 c -0.527,0 -0.95,0.423 -0.95,0.945 v 4.644 h 9.885 v 1.85 H 4.719 v 3.677 c 0,0.518 0.423,0.938 0.95,0.938 h 9.075 v 1.86 H 1.879 C 0.846,1.874 0,1.04 0,0"
           style="fill:#e30413;fill-opacity:1;fill-rule:nonzero;stroke:none"
           transform="matrix(1.3333333,0,0,-1.3333333,1178.3471,622.61773)"
           clip-path="url(#clipPath16)" />
        <path
           id="path17"
           d="M 0,0 C -0.088,-0.283 -0.237,-0.492 -0.445,-0.625 -0.653,-0.76 -0.891,-0.827 -1.157,-0.827 h -1.626 c -0.328,0 -0.584,0.06 -0.768,0.18 -0.187,0.12 -0.339,0.329 -0.458,0.626 L -7.885,11.053 -11.56,0.022 c -0.194,-0.566 -0.565,-0.849 -1.114,-0.849 h -1.871 c -0.342,0 -0.601,0.064 -0.779,0.192 -0.179,0.126 -0.328,0.352 -0.445,0.678 l -5.147,14.913 h 4.967 l 3.343,-10.904 3.028,9.589 c 0.119,0.367 0.309,0.68 0.568,0.933 0.26,0.256 0.635,0.382 1.125,0.382 h 2.005 c 0.461,0 0.813,-0.119 1.058,-0.361 0.245,-0.24 0.435,-0.544 0.568,-0.911 L -1.157,4.2 2.139,14.956 h 2.495 z"
           style="fill:#e30413;fill-opacity:1;fill-rule:nonzero;stroke:none"
           transform="matrix(1.3333333,0,0,-1.3333333,1238.8949,640.04827)"
           clip-path="url(#clipPath18)" />
        <path
           id="path19"
           d="m 0,0 v -1.868 h -9.779 v -4.454 c 0,-0.156 0.007,-0.304 0.023,-0.446 0.014,-0.141 0.059,-0.262 0.133,-0.36 0.074,-0.099 0.19,-0.178 0.345,-0.233 0.156,-0.057 0.368,-0.085 0.635,-0.085 h 8.776 v -1.889 h -12.296 c -0.342,0 -0.656,0.021 -0.946,0.064 -0.29,0.042 -0.542,0.142 -0.758,0.297 -0.215,0.155 -0.381,0.385 -0.5,0.689 -0.119,0.304 -0.178,0.718 -0.178,1.241 V 4.157 c 0,0.51 0.062,0.915 0.188,1.221 0.126,0.304 0.294,0.537 0.502,0.699 0.208,0.162 0.446,0.266 0.713,0.307 0.266,0.043 0.541,0.064 0.824,0.064 H 0.133 V 4.561 h -8.665 c -0.43,0 -0.746,-0.064 -0.946,-0.191 -0.2,-0.128 -0.301,-0.439 -0.301,-0.934 V 0 Z"
           style="fill:#e30413;fill-opacity:1;fill-rule:nonzero;stroke:none"
           transform="matrix(1.3333333,0,0,-1.3333333,1267.6457,628.70453)"
           clip-path="url(#clipPath20)" />
        <path
           id="path21"
           d="m 0,0 c 0,-0.326 0.059,-0.587 0.178,-0.786 0.119,-0.198 0.38,-0.296 0.78,-0.296 h 8.107 v -1.91 H -2.74 c -0.654,0 -1.158,0.169 -1.514,0.509 -0.357,0.341 -0.535,0.871 -0.535,1.592 V 12.791 H 0 Z"
           style="fill:#e30413;fill-opacity:1;fill-rule:nonzero;stroke:none"
           transform="matrix(1.3333333,0,0,-1.3333333,1278.1009,637.16173)"
           clip-path="url(#clipPath22)" />
        <path
           id="path23"
           d="m 0,0 c 0,-0.326 0.059,-0.587 0.178,-0.786 0.119,-0.198 0.38,-0.296 0.78,-0.296 h 8.107 v -1.91 H -2.74 c -0.654,0 -1.158,0.169 -1.514,0.509 -0.357,0.341 -0.535,0.871 -0.535,1.592 V 12.791 H 0 Z"
           style="fill:#e30413;fill-opacity:1;fill-rule:nonzero;stroke:none"
           transform="matrix(1.3333333,0,0,-1.3333333,1299.8999,637.16173)"
           clip-path="url(#clipPath24)" />
        <path
           id="path25"
           d="M 0,0 H 10.001 V -1.868 H 0 V -9.335 H -4.789 V 4.116 c 0,0.509 0.059,0.918 0.178,1.229 0.119,0.311 0.278,0.549 0.478,0.711 0.2,0.163 0.435,0.268 0.703,0.318 0.265,0.05 0.542,0.074 0.823,0.074 H 10.134 V 4.561 H 1.424 C 1.158,4.561 0.931,4.549 0.746,4.528 0.559,4.508 0.411,4.458 0.3,4.38 0.188,4.302 0.11,4.178 0.066,4.009 0.022,3.84 0,3.607 0,3.31 Z"
           style="fill:#e30413;fill-opacity:1;fill-rule:nonzero;stroke:none"
           transform="matrix(1.3333333,0,0,-1.3333333,1321.5216,628.70453)"
           clip-path="url(#clipPath26)" />
        <path
           id="path27"
           d="M 0,0 C 0,-1.131 -0.211,-2.217 -0.634,-3.256 -1.058,-4.295 -1.682,-5.209 -2.505,-5.992 -3.33,-6.778 -4.344,-7.403 -5.545,-7.871 -6.749,-8.337 -8.13,-8.57 -9.689,-8.57 c -1.59,0 -2.988,0.233 -4.198,0.699 -1.211,0.468 -2.226,1.093 -3.041,1.879 -0.818,0.783 -1.429,1.697 -1.838,2.736 -0.409,1.039 -0.613,2.125 -0.613,3.256 0,1.131 0.197,2.217 0.59,3.256 0.394,1.039 0.991,1.953 1.794,2.736 0.801,0.786 1.811,1.413 3.03,1.879 1.217,0.466 2.641,0.699 4.276,0.699 1.633,0 3.059,-0.233 4.277,-0.699 C -4.195,7.405 -3.185,6.778 -2.383,5.992 -1.581,5.209 -0.984,4.295 -0.59,3.256 -0.197,2.217 0,1.131 0,0 m -9.689,6.811 c -0.742,0 -1.422,-0.182 -2.039,-0.542 C -12.344,5.908 -12.874,5.418 -13.319,4.794 -13.765,4.173 -14.11,3.451 -14.355,2.631 -14.6,1.811 -14.723,0.934 -14.723,0 c 0,-0.934 0.123,-1.811 0.368,-2.631 0.245,-0.82 0.59,-1.537 1.036,-2.153 0.445,-0.615 0.975,-1.1 1.591,-1.454 0.617,-0.352 1.297,-0.53 2.039,-0.53 0.743,0 1.421,0.178 2.037,0.53 0.617,0.354 1.145,0.839 1.582,1.454 0.438,0.616 0.78,1.333 1.025,2.153 0.246,0.82 0.368,1.697 0.368,2.631 0,0.934 -0.122,1.811 -0.368,2.631 -0.245,0.82 -0.587,1.542 -1.025,2.163 -0.437,0.624 -0.965,1.114 -1.582,1.475 -0.616,0.36 -1.294,0.542 -2.037,0.542"
           style="fill:#e30413;fill-opacity:1;fill-rule:nonzero;stroke:none"
           transform="matrix(1.3333333,0,0,-1.3333333,1364.4061,630.62893)"
           clip-path="url(#clipPath28)" />
        <path
           id="path29"
           d="M 0,0 C 0,-1.131 -0.211,-2.217 -0.634,-3.256 -1.058,-4.295 -1.682,-5.209 -2.505,-5.992 -3.33,-6.778 -4.344,-7.403 -5.545,-7.871 -6.749,-8.337 -8.13,-8.57 -9.689,-8.57 c -1.59,0 -2.988,0.233 -4.198,0.699 -1.211,0.468 -2.226,1.093 -3.041,1.879 -0.818,0.783 -1.429,1.697 -1.838,2.736 -0.409,1.039 -0.613,2.125 -0.613,3.256 0,1.131 0.197,2.217 0.59,3.256 0.394,1.039 0.991,1.953 1.794,2.736 0.801,0.786 1.811,1.413 3.03,1.879 1.217,0.466 2.641,0.699 4.276,0.699 1.634,0 3.06,-0.233 4.277,-0.699 1.217,-0.466 2.227,-1.093 3.03,-1.879 C -1.581,5.209 -0.984,4.295 -0.59,3.256 -0.197,2.217 0,1.131 0,0 m -9.689,6.811 c -0.742,0 -1.422,-0.182 -2.039,-0.542 C -12.344,5.908 -12.874,5.418 -13.319,4.794 -13.765,4.173 -14.11,3.451 -14.355,2.631 -14.6,1.811 -14.723,0.934 -14.723,0 c 0,-0.934 0.123,-1.811 0.368,-2.631 0.245,-0.82 0.59,-1.537 1.036,-2.153 0.445,-0.615 0.975,-1.1 1.591,-1.454 0.617,-0.352 1.297,-0.53 2.039,-0.53 0.743,0 1.421,0.178 2.038,0.53 0.616,0.354 1.144,0.839 1.581,1.454 0.438,0.616 0.78,1.333 1.025,2.153 0.246,0.82 0.368,1.697 0.368,2.631 0,0.934 -0.122,1.811 -0.368,2.631 -0.245,0.82 -0.587,1.542 -1.025,2.163 -0.437,0.624 -0.965,1.114 -1.581,1.475 -0.617,0.36 -1.295,0.542 -2.038,0.542"
           style="fill:#e30413;fill-opacity:1;fill-rule:nonzero;stroke:none"
           transform="matrix(1.3333333,0,0,-1.3333333,1394.1075,630.62893)"
           clip-path="url(#clipPath30)" />
        <path
           id="path31"
           d="m 0,0 c 1.381,0 2.636,-0.18 3.764,-0.54 1.129,-0.361 2.087,-0.877 2.874,-1.549 0.787,-0.672 1.395,-1.492 1.827,-2.462 0.43,-0.968 0.645,-2.068 0.645,-3.297 0,-1.104 -0.231,-2.136 -0.69,-3.098 -0.461,-0.963 -1.1,-1.8 -1.917,-2.513 C 5.687,-14.174 4.722,-14.74 3.608,-15.158 2.495,-15.574 1.291,-15.783 0,-15.783 h -7.284 c -0.699,0 -1.21,0.176 -1.538,0.53 -0.326,0.354 -0.489,0.87 -0.489,1.549 v 11.625 c 0,0.679 0.163,1.195 0.489,1.549 0.328,0.354 0.839,0.53 1.538,0.53 z m -0.623,-13.894 c 0.637,0 1.25,0.159 1.837,0.476 0.587,0.318 1.11,0.753 1.571,1.305 0.459,0.551 0.827,1.195 1.101,1.931 0.275,0.735 0.413,1.521 0.413,2.354 0,0.877 -0.138,1.68 -0.413,2.409 -0.274,0.728 -0.642,1.353 -1.101,1.876 -0.461,0.523 -0.984,0.931 -1.571,1.221 -0.587,0.29 -1.2,0.435 -1.837,0.435 H -3.14 c -0.268,0 -0.491,-0.016 -0.67,-0.043 -0.178,-0.028 -0.32,-0.085 -0.423,-0.169 -0.104,-0.085 -0.178,-0.206 -0.223,-0.361 -0.043,-0.156 -0.066,-0.368 -0.066,-0.637 v -9.525 c 0,-0.425 0.052,-0.742 0.156,-0.955 0.103,-0.212 0.423,-0.317 0.958,-0.317 z"
           style="fill:#e30413;fill-opacity:1;fill-rule:nonzero;stroke:none"
           transform="matrix(1.3333333,0,0,-1.3333333,1410.8884,620.10693)"
           clip-path="url(#clipPath32)" />
        <path
           id="path33"
           d="m 0,0 c -5.135,-5.135 -13.539,-5.135 -18.675,0 l -9.488,9.488 c -5.135,5.135 -5.135,13.54 0,18.676 l 9.488,9.488 c 5.136,5.135 13.54,5.135 18.675,0 l 9.488,-9.488 c 5.136,-5.136 5.136,-13.541 0,-18.676 z"
           style="fill:#e30413;fill-opacity:1;fill-rule:nonzero;stroke:none"
           transform="matrix(1.3333333,0,0,-1.3333333,1047.4473,655.72227)"
           clip-path="url(#clipPath34)" />
        <path
           id="path35"
           d="m 0,0 c -0.755,0 -1.369,0.59 -1.401,1.344 -0.015,0.374 0.116,0.733 0.37,1.008 0.254,0.277 0.6,0.437 0.974,0.452 C 0.715,2.841 1.371,2.234 1.404,1.46 1.436,0.688 0.833,0.033 0.06,0.001 0.04,0 0.02,0 0,0"
           style="fill:#ffffff;fill-opacity:1;fill-rule:nonzero;stroke:none"
           transform="matrix(1.3333333,0,0,-1.3333333,1027.4949,649.20387)"
           clip-path="url(#clipPath36)" />
        <path
           id="path37"
           d="m 0,0 c -0.77,0 -1.386,-0.241 -1.885,-0.736 -1.076,-1.07 -1.641,-3.277 -1.59,-6.215 0.061,-3.622 0.923,-10.729 3.772,-14.388 0.462,-0.592 0.959,-1.066 1.476,-1.407 0.502,-0.332 1.065,-0.656 1.943,-0.656 0.238,0 0.495,0.024 0.762,0.072 1.634,0.392 3.68,2.211 5.201,4.631 0.233,0.368 0.631,0.589 1.067,0.589 0.236,0 0.468,-0.067 0.668,-0.193 0.285,-0.18 0.483,-0.459 0.558,-0.786 0.075,-0.329 0.017,-0.665 -0.162,-0.95 -1.925,-3.06 -4.466,-5.21 -6.797,-5.749 -0.008,-0.003 -0.033,-0.009 -0.058,-0.013 -0.428,-0.078 -0.848,-0.118 -1.248,-0.118 -1.504,0 -2.565,0.573 -3.321,1.072 -0.747,0.494 -1.445,1.154 -2.074,1.961 -4.011,5.151 -4.286,14.807 -4.304,15.892 -0.043,2.569 0.327,6.051 2.334,8.044 0.98,0.971 2.207,1.464 3.648,1.464 H 0.224 C 1.668,2.514 2.897,2.021 3.876,1.05 5.883,-0.943 6.253,-4.425 6.21,-6.994 6.165,-9.672 5.674,-14.858 2.898,-19.507 2.671,-19.885 2.257,-20.12 1.816,-20.12 c -0.227,0 -0.45,0.061 -0.644,0.178 -0.595,0.355 -0.79,1.129 -0.436,1.726 1.944,3.253 2.883,6.833 2.957,11.265 0.05,2.939 -0.515,5.146 -1.59,6.215 C 1.604,-0.241 0.989,0 0.221,0 Z"
           style="fill:#ffffff;fill-opacity:1;fill-rule:nonzero;stroke:none"
           transform="matrix(1.3333333,0,0,-1.3333333,1034.3015,614.6724)"
           clip-path="url(#clipPath38)" />
      </g>
    </g>
  </g>
</svg>
